# xmcd
#
# Track frame offsets:
#	150
#	13264
#	25930
#	35437
#	49898
#	59862
#	69475
#	80362
#	92955
#	104399
#	116328
#	130113
#	143584
#	154918
#	166916
#	180065
#	193479
#	203313
#	215146
#	224265
#
# Disc length: 3105 seconds
#
# Revision: 1
# Processed by: cddbd v1.5.2PL0 Copyright (c) Steve Scherf et al.
# Submitted via: audiograbber 1.83.01
#
DISCID=1f0c1f14
DTITLE=Dvorana Slavy - Dvorana Slavy Country 2
DYEAR=1900
DGENRE=Country
TTITLE0=Hank Williams - Jambalaya - On The Bayou
TTITLE1=Hank Snow - Golden Rocket
TTITLE2=Jimmie Rodgers - In the Jailhouse Now
TTITLE3=Ernest Tubb - Soldier's Last Letter
TTITLE4=Johnny Cash - Hey Porter
TTITLE5=Bill Monroe - Blue Moon of Kentucky
TTITLE6=George Jones - Will the Circle Be Unbroken
TTITLE7=Hank Williams - I'm So Lonesome I Could Cry
TTITLE8=Jean Shepar, Ferlin Husky - A Dear John Letter
TTITLE9=Hank Williams - Take These Chais From My Heart
TTITLE10=Ernest Tubb, Red Foley - Goodnight Irene
TTITLE11=Pee Wee King, Golden West Cowboys - Tennessee Waltz
TTITLE12=Carl Smith - Hey Joe
TTITLE13=Tennessee Ernie Ford - Sixteen Tons
TTITLE14=George Jones - Seasons Of My Heart
TTITLE15=Hank Williams - You're Gonna Change (Or I'm Gonna Leave)
TTITLE16=Bobby Helms - Jingle Bell Rock
TTITLE17=Elvis Presley - Oh Little Town Of Bethlehem
TTITLE18=Jim Reaves - Oh Come All Ye Faithful
TTITLE19=Elvis Presley - I'll Be Home For Christmas
EXTD=
EXTT0=
EXTT1=
EXTT2=
EXTT3=
EXTT4=
EXTT5=
EXTT6=
EXTT7=
EXTT8=
EXTT9=
EXTT10=
EXTT11=
EXTT12=
EXTT13=
EXTT14=
EXTT15=
EXTT16=
EXTT17=
EXTT18=
EXTT19=
PLAYORDER=
